:SAMPLES-PER-SECOND 30
:FULLY-SPECIFIED
:DEGREES
163
root  -24.5074 39.1758 0.589285 -45.166 -83.3299 36.5843
RightUpLeg  -6.90478 -6.97461 -14.4052
RightLeg  53.2178 1.14808 1.26711
RightFoot  -4.32834 -0.417169 6.33529
RightToes  -9.31324e-010 0 -3.6325e-017
Spine  8.28908 2.11229 2.07342
Spine1  5.79663 3.59736 -7.96319
HEad  -7.79062 1.03973 -6.52147
LeftShoulder1  -0.79853 5.57216 -32.4526
LeftArm  4.00634 6.57162 -36.6739
LeftForeArm  22.3262 -37.0444 -7.09586
LeftHand  -0.0525344 4.35863 3.40649
RightShoulder  -0.834413 -5.71388 31.112
RightArm  25.3745 -4.38839 47.9821
RightForeArm  13.2093 24.9888 4.64144
RightHand  -0.203478 5.27691 -2.51665
LeftUpLeg  -8.01543 5.8444 -3.96229
LeftLeg  17.4704 -3.00945 -1.36897
LeftFoot  -0.414009 -0.443816 4.6607
LeftToes  8.61288e-010 -5.99147e-011 2.1039e-011
164
root  -23.493 38.9917 0.362196 -47.2247 -83.2141 38.3504
RightUpLeg  -2.55249 -4.60616 -14.6706
RightLeg  54.3339 1.92254 2.48093
RightFoot  -4.98874 -0.416357 6.88064
RightToes  -9.31324e-010 0 -3.6325e-017
Spine  7.67392 2.42764 1.79802
Spine1  6.29448 3.88244 -8.00466
HEad  -7.47762 0.714004 -6.20674
LeftShoulder1  -0.862357 5.7243 -32.6672
LeftArm  8.09923 9.68111 -36.6252
LeftForeArm  17.376 -28.8643 -5.27539
LeftHand  -0.0141825 6.23069 2.13734
RightShoulder  -0.889186 -5.85471 31.2033
RightArm  24.3525 -4.39592 46.9111
RightForeArm  8.77073 21.9266 4.56086
RightHand  -0.185118 5.10221 -2.35319
LeftUpLeg  -9.44334 5.64885 -4.12844
LeftLeg  17.3659 -2.75751 -1.26531
LeftFoot  1.17986 -0.492661 4.42531
LeftToes  8.61288e-010 -5.99147e-011 2.1039e-011
165
root  -22.3827 38.762 0.129941 -48.4452 -83.4003 39.2905
RightUpLeg  1.96545 -1.9339 -13.8135
RightLeg  53.0354 3.40174 4.45114
RightFoot  -4.42753 -0.458205 7.0294
RightToes  -9.31324e-010 0 -3.6325e-017
Spine  7.4343 2.62403 2.54015
Spine1  6.39618 4.31304 -8.77267
HEad  -6.7888 -0.206646 -5.60711
LeftShoulder1  -0.877298 5.74139 -33.0449
LeftArm  9.21246 11.8347 -36.2556
LeftForeArm  15.9218 -18.8986 -5.31544
LeftHand  -0.0196874 7.35964 1.11844
RightShoulder  -0.929824 -5.96562 31.1675
RightArm  22.5609 -3.44397 46.208
RightForeArm  8.94989 18.0356 5.31322
RightHand  -0.159888 5.47453 -2.02448
LeftUpLeg  -11.2288 5.90227 -3.99231
LeftLeg  17.6242 -2.68526 -1.15317
LeftFoot  2.72372 -0.505282 3.96198
LeftToes  8.61288e-010 -5.99147e-011 2.1039e-011
166
root  -21.2132 38.4723 -0.124579 -52.101 -84.1351 42.552
RightUpLeg  6.37007 1.06437 -12.1339
RightLeg  49.9562 5.66312 6.81991
RightFoot  -3.78567 -0.602543 8.74507
RightToes  -9.31324e-010 0 -3.6325e-017
Spine  7.37573 2.88754 3.70612
Spine1  6.54276 4.85392 -9.37426
HEad  -6.35593 -0.223365 -5.52938
LeftShoulder1  -0.812563 5.54441 -33.6414
LeftArm  -1.58132 13.9418 -34.9385
LeftForeArm  27.3122 -8.48271 -8.81453
LeftHand  -0.0988779 9.51836 -1.05403
RightShoulder  -0.871806 -5.84204 30.6662
RightArm  19.8498 -2.14423 45.745
RightForeArm  12.5371 14.9064 6.19127
RightHand  -0.108272 5.27773 -1.49415
LeftUpLeg  -13.2566 6.3365 -3.54525
LeftLeg  18.4155 -2.58903 -0.882453
LeftFoot  4.21009 -0.492373 3.4167
LeftToes  8.61288e-010 -5.99147e-011 2.1039e-011
167
root  -19.9785 38.133 -0.391663 -65.3297 -85.0387 55.3596
RightUpLeg  10.6912 4.17809 -10.675
RightLeg  45.463 7.41866 7.74754
RightFoot  -7.14661 -0.490154 12.5395
RightToes  -9.31324e-010 0 -3.6325e-017
Spine  7.30972 3.3109 4.94157
Spine1  7.06308 5.66786 -10.3343
HEad  -6.23349 -0.355514 -5.66032
LeftShoulder1  -0.796679 5.47745 -34.1922
LeftArm  -4.9966 17.098 -34.1011
LeftForeArm  33.987 -2.84667 -7.8122
LeftHand  -0.302298 11.664 -4.32855
RightShoulder  -0.811458 -5.70206 30.2799
RightArm  18.1473 -0.56565 45.1923
RightForeArm  15.8431 13.0565 6.60364
RightHand  -0.0936408 4.11672 -1.41639
LeftUpLeg  -15.1476 6.36334 -3.18721
LeftLeg  18.8634 -1.14741 -0.197306
LeftFoot  5.93232 -0.493778 3.00943
LeftToes  8.61288e-010 -5.99147e-011 2.1039e-011
168
root  -18.6233 37.8433 -0.677465 -91.3103 -85.6985 81.4035
RightUpLeg  13.7346 6.28482 -9.55584
RightLeg  39.2768 7.10465 5.93402
RightFoot  -15.4542 0.392774 14.2781
RightToes  -9.31324e-010 0 -3.6325e-017
Spine  7.52617 3.7171 6.49448
Spine1  7.16716 6.57308 -11.6118
HEad  -6.97295 0.0637827 -6.18892
LeftShoulder1  -0.729616 5.29539 -34.5398
LeftArm  -4.67137 22.0824 -33.0191
LeftForeArm  40.6361 -3.13288 -7.5929
LeftHand  -0.383071 10.5837 -6.98565
RightShoulder  -0.837521 -5.78251 30.1298
RightArm  17.4415 1.40855 44.5074
RightForeArm  16.3157 12.2812 6.76442
RightHand  -0.0730077 4.63576 -1.13754
LeftUpLeg  -17.0097 6.49807 -2.43971
LeftLeg  18.1241 0.686992 0.452551
LeftFoot  7.87067 -0.439677 2.32925
LeftToes  8.61288e-010 -5.99147e-011 2.1039e-011
169
root  -17.0996 37.6646 -0.998002 -127.125 -85.4845 117.746
RightUpLeg  14.4327 7.64382 -8.28054
RightLeg  33.1281 6.41343 4.25401
RightFoot  -22.749 1.00633 11.7439
RightToes  -9.31324e-010 0 -3.6325e-017
Spine  8.19399 3.99385 8.76152
Spine1  6.68243 7.48532 -13.1182
HEad  -8.36265 1.37946 -7.0478
LeftShoulder1  -0.757094 5.36535 -34.4855
LeftArm  -2.40801 26.9536 -32.0239
LeftForeArm  46.4988 -5.89637 -8.68211
LeftHand  -0.31657 8.97336 -8.15251
RightShoulder  -0.893786 -5.92197 30.362
RightArm  17.1024 3.47318 43.67
RightForeArm  14.9705 12.8851 6.48827
RightHand  -0.0762335 5.10472 -1.14753
LeftUpLeg  -18.6729 6.63763 -0.861733
LeftLeg  16.0563 3.05028 1.00437
LeftFoot  8.63509 -0.101924 0.256
LeftToes  8.61288e-010 -5.99147e-011 2.1039e-011
